<?xml version="1.0" encoding="UTF-8"?>
<svg version="1.1" xmlns="http://www.w3.org/2000/svg" width="109" height="100">
<path d="M0 0 C5.31686898 4.09069183 9.24566375 8.98127154 11.015625 15.55078125 C11.50149109 20.0760851 11.5393287 24.56487152 11.515625 29.11328125 C11.50990479 30.36874756 11.50418457 31.62421387 11.49829102 32.91772461 C11.32154299 42.07827132 10.46720524 49.40269893 6.015625 57.55078125 C5.49613281 58.51371094 4.97664063 59.47664063 4.44140625 60.46875 C0.45044517 67.21338119 -4.50825599 72.97239177 -9.984375 78.55078125 C-10.67144531 79.26234375 -11.35851562 79.97390625 -12.06640625 80.70703125 C-22.0159981 90.30589538 -33.71618686 94.87619833 -47.40942383 94.93579102 C-54.80511715 94.78991158 -60.12426336 92.93052344 -65.7421875 88.01171875 C-69.4142704 84.11820372 -71.50181129 79.62870919 -73.77734375 74.83203125 C-75.38083436 71.80148588 -77.4504101 69.84341616 -79.984375 67.55078125 C-84.97859336 62.80197903 -88.23414029 57.59904283 -91.296875 51.48828125 C-91.63436768 50.81563232 -91.97186035 50.1429834 -92.31958008 49.44995117 C-95.81405669 42.22332053 -97.34587304 35.61319389 -97.359375 27.61328125 C-97.38386719 26.85337891 -97.40835938 26.09347656 -97.43359375 25.31054688 C-97.46711467 18.76838132 -95.68747585 13.62539833 -91.3359375 8.67578125 C-84.96955343 4.5275491 -78.36376333 4.64701347 -70.984375 5.55078125 C-65.00123125 7.13078034 -59.940877 9.89862188 -54.984375 13.55078125 C-51.96831353 12.2007974 -49.94944161 10.67687651 -47.609375 8.36328125 C-35.45118046 -2.57909383 -14.9342951 -9.01645367 0 0 Z " fill="#01DFFF" transform="translate(97.984375,4.44921875)"/>
<path d="M0 0 C3.60469333 3.28663215 5.79495191 6.47232596 6.44140625 11.30078125 C6.50165687 13.88352431 6.372518 16.36650654 6.125 18.9375 C6.03605469 19.96617188 6.03605469 19.96617188 5.9453125 21.015625 C3.53726831 36.40361467 -7.37490946 51.06666823 -19.41015625 60.24609375 C-27.56525406 65.84222267 -34.91530473 68.02011926 -44.6875 66.5 C-48.42620595 63.82949575 -49.68205116 60.2841487 -50.875 55.9375 C-52.95150772 42.30561138 -46.63685042 30.49281674 -39.64453125 19.2890625 C-39.06058594 18.51304688 -38.47664063 17.73703125 -37.875 16.9375 C-37.215 16.9375 -36.555 16.9375 -35.875 16.9375 C-35.62492187 16.35742188 -35.37484375 15.77734375 -35.1171875 15.1796875 C-28.80551631 3.78692253 -12.55612382 -4.64030663 0 0 Z " fill="#3C88FE" transform="translate(87.875,17.0625)"/>
<path d="M0 0 C5.31686898 4.09069183 9.24566375 8.98127154 11.015625 15.55078125 C11.50149109 20.0760851 11.5393287 24.56487152 11.515625 29.11328125 C11.50990479 30.36874756 11.50418457 31.62421387 11.49829102 32.91772461 C11.32154299 42.07827132 10.46720524 49.40269893 6.015625 57.55078125 C5.49613281 58.51371094 4.97664063 59.47664063 4.44140625 60.46875 C0.45044517 67.21338119 -4.50825599 72.97239177 -9.984375 78.55078125 C-10.67144531 79.26234375 -11.35851562 79.97390625 -12.06640625 80.70703125 C-22.0159981 90.30589538 -33.71618686 94.87619833 -47.40942383 94.93579102 C-54.84918283 94.78904238 -60.1770255 92.90255046 -65.8125 87.94140625 C-69.59473243 83.9388496 -71.33882675 79.76168404 -72.984375 74.55078125 C-68.80370757 76.03424389 -65.09274685 78.12200314 -61.265625 80.33203125 C-54.16461514 84.12572145 -47.16583628 84.87627135 -39.296875 82.86328125 C-33.32142801 80.62248863 -28.09365524 77.34245489 -22.984375 73.55078125 C-22.16582031 72.94492188 -21.34726563 72.3390625 -20.50390625 71.71484375 C-9.00606099 61.83917511 -1.31784381 45.89761311 0.4375 30.9609375 C0.73922446 23.24182011 -0.04316731 16.721265 -4.984375 10.55078125 C-9.69168445 6.46117304 -15.12566349 5.91232123 -21.1875 6.171875 C-30.05070379 7.3726163 -36.28736432 11.93519447 -42.984375 17.55078125 C-44.31162167 18.55884576 -45.64314457 19.56139826 -46.984375 20.55078125 C-49.47799071 19.34696677 -51.66580583 18.09649403 -53.984375 16.55078125 C-49.63281648 6.5377563 -38.45827536 1.62113694 -28.984375 -2.44921875 C-20.26388291 -5.49871598 -7.85970766 -4.74523166 0 0 Z " fill="#9B1AF0" transform="translate(97.984375,4.44921875)"/>
<path d="M0 0 C5.49091949 3.03083011 9.8875212 6.65082741 14.1796875 11.203125 C17.57601482 10.1739349 19.80012599 8.75694473 22.3671875 6.390625 C29.50523303 -0.01008396 37.82082269 -3.20450051 47.32421875 -3.06640625 C51.62308128 -2.66063126 54.82640116 -1.54185543 58.1796875 1.203125 C64.44477065 8.96807843 64.89441244 16.45507101 64.1796875 26.203125 C61.62029055 38.5271777 56.13916605 48.60545399 48.1796875 58.203125 C47.55578125 59.03070313 46.931875 59.85828125 46.2890625 60.7109375 C39.8513522 68.316973 28.74219839 75.51046259 18.578125 76.44140625 C5.04793417 76.77354272 -5.74631377 69.94450027 -15.8203125 61.203125 C-17.55315766 59.25058473 -19.17355989 57.32974723 -20.7578125 55.265625 C-21.1909375 54.70149902 -21.6240625 54.13737305 -22.0703125 53.55615234 C-29.6286711 43.37211021 -34.17387299 31.96853528 -34.1953125 19.265625 C-34.21980469 18.50572266 -34.24429688 17.74582031 -34.26953125 16.96289062 C-34.30305217 10.42072507 -32.52341335 5.27774208 -28.171875 0.328125 C-19.69218762 -5.19710117 -8.88887175 -4.13842554 0 0 Z M-26.1328125 7.703125 C-29.47835786 12.6594885 -29.35332643 17.42255137 -28.8203125 23.203125 C-25.37149318 40.26985374 -16.37446346 54.98878681 -1.91015625 64.95703125 C5.06614635 69.11673318 11.88526913 72.81469648 20.1796875 71.203125 C34.94043985 66.36474195 46.16305403 55.0517824 53.1328125 41.4765625 C53.78007402 40.15949074 54.42075953 38.83916601 55.0546875 37.515625 C55.3532666 36.8980835 55.6518457 36.28054199 55.95947266 35.64428711 C59.20012586 28.57059307 61.07678712 18.71914835 58.4609375 11.11328125 C56.4108689 7.20327138 54.31005081 4.72956362 50.1796875 3.203125 C41.74811994 1.68140562 35.16999008 4.63839476 28.1796875 9.203125 C24.24051021 12.23215447 20.53285101 15.53312715 17.1796875 19.203125 C17.1796875 19.863125 17.1796875 20.523125 17.1796875 21.203125 C15.4296875 19.671875 15.4296875 19.671875 13.6796875 18.140625 C12.94234375 17.50253906 12.205 16.86445313 11.4453125 16.20703125 C10.03049576 14.95565023 8.63992615 13.67563096 7.2890625 12.35546875 C1.0878564 6.42784527 -6.14556463 2.80631827 -14.6953125 1.703125 C-19.64875929 2.49567649 -22.71921556 4.01274994 -26.1328125 7.703125 Z " fill="#F8F9FE" transform="translate(34.8203125,12.796875)"/>
</svg>
